# xmcd
#
# Track frame offsets: 
#        150
#        6852
#        34862
#        44527
#        61035
#        73380
#        87012
#        97572
#        104640
#        114035
#        120225
#        134217
#        141977
#        153620
#        161770
#        176007
#        188170
#        201420
#        207335
#        215157
#        228670
#        240650
#        251352
#        263770
#        271565
#        284187
#        292020
#        301725
#        313877
#        320685
#
# Disc length: 4366 seconds
#
# Revision: 5
# Processed by: cddbd v1.5.2PL0 Copyright (c) Steve Scherf et al.
# Submitted via: ExactAudioCopy v1.0b2
#
DISCID=c9110c1e
DTITLE=Various Artist - Space Battleship Yamato Eternal Edition File No.7
DYEAR=2001
DGENRE=Soundtrack
TTITLE0=Space Battleship Yamato
TTITLE1=The Sun, Sun Symphony
TTITLE2=Yamato New Crew Theme
TTITLE3=Bolar Union
TTITLE4=Legend of Shalbart
TTITLE5=Revolution
TTITLE6=Bemlarze's Threat
TTITLE7=Endless Voyage
TTITLE8=Galman Empire Mobile Fortress
TTITLE9=Recollection
TTITLE10=Dessler Zupales
TTITLE11=Vagrancy
TTITLE12=Bolar's Fight
TTITLE13=Enraged Sun
TTITLE14=Brave Warrior Death
TTITLE15=Dessler's Friendship
TTITLE16=2nd Earth: Planet Phantom
TTITLE17=Party
TTITLE18=Phantom
TTITLE19=Princess Ruda's Theme
TTITLE20=Bolar Fleet Surprise Attack
TTITLE21=Shalbart's Fight
TTITLE22=Valley of the Royal House
TTITLE23=Love
TTITLE24=Fight I
TTITLE25=Fight II
TTITLE26=2nd Life
TTITLE27=Ruda, Shalbart
TTITLE28=Separation
TTITLE29=Yamato into Eternity
EXTD=YEAR: 2001.2.1
EXTT0=
EXTT1=
EXTT2=
EXTT3=
EXTT4=
EXTT5=
EXTT6=
EXTT7=
EXTT8=
EXTT9=
EXTT10=
EXTT11=
EXTT12=
EXTT13=
EXTT14=
EXTT15=
EXTT16=
EXTT17=
EXTT18=
EXTT19=
EXTT20=
EXTT21=
EXTT22=
EXTT23=
EXTT24=
EXTT25=
EXTT26=
EXTT27=
EXTT28=
EXTT29=
PLAYORDER=
